<svg id="Layer_1" viewBox="0 0 512 512" xmlns="http://www.w3.org/2000/svg" data-name="Layer 1"><path d="m310.565 352.714c3.473-10.743 6.782-21.269 8.112-28.485a38.142 38.142 0 0 0 -.163-15.463 5.04 5.04 0 1 1 9.929-1.736 46.29 46.29 0 0 1 .135 18.963c-.7 3.825-1.871 8.328-3.282 13.211a1.922 1.922 0 0 0 2.875 2.143c11.964-7.677 23.954-14.785 35.945-21.865a5.029 5.029 0 0 1 5.127 8.654c-36.189 21.4-63.208 37.762-93.211 66.49a1.913 1.913 0 0 0 1.817 3.229c9.929-2.713 19.424-4.775 28-5.453 16.168-1.3 28.512 2.306 40.828 5.887a5.04 5.04 0 0 1 -2.8 9.684c-11.42-3.336-22.814-6.673-37.246-5.507-14.3 1.14-32.093 6.647-49.97 12.289a1.7 1.7 0 0 0 -.841.516c-15.463 16.656-53.144 57.972-66 77.965a5.034 5.034 0 1 0 8.464 5.453c7.189-11.149 18.338-23.493 28.023-33.856a1.749 1.749 0 0 1 1.573-.6c49.563 4.774 98.475-1.058 139.845-20.563 41.153-19.37 74.873-52.3 94.459-101.7 10.065-25.392 14.894-55.5 13.917-83.011-.841-23.71-6.131-48.4-12.506-67.9-2.224-6.89-3.852-10.769-5.29-13.076a8.568 8.568 0 0 0 -3.825-3.553c-9.576-4.829-19.559-1.628-26.043 7.243-4.394 6.022-8.03 11.231-11.258 15.9-16.412 23.71-22.733 32.825-64.212 50.241-35.293 14.839-71.78 14.839-103.221 38.413-55.152 41.289-66.084 104.985-44.273 167.163a1.894 1.894 0 0 0 3.255.6c22.272-26.449 46.9-55.4 72.486-77.8a355.663 355.663 0 0 1 28.646-22.5 1.826 1.826 0 0 0 .7-.976zm-171.313-230.344a245.619 245.619 0 0 0 -19.071-28.81 1.916 1.916 0 0 0 -3.418 1.44c2.9 19.966.678 29.325-6.1 46.687a5.038 5.038 0 0 1 -9.387-3.662c7.081-18.094 8.274-25.826 4.8-46.063-1.058-6.24-2.5-12.913-3.988-19.641-.434-2.089-25.744-27.155-28.077-29.786-9.089-10.311-19.886-22.491-30.111-30.467a5.025 5.025 0 1 0 -6.186 7.921c9.575 7.488 20.344 19.668 28.886 29.353a1.863 1.863 0 0 1 .461 1.573c-12.479 73.056 6.646 145.949 77.613 181.676 18.61 9.386 41.072 15.083 62.042 16.223a195.136 195.136 0 0 0 52.384-4.883c6.348-1.438 11.1-2.523 13.048-5.643 4.232-6.809 2.523-14.4-3.662-19.831-4.178-3.689-7.949-6.836-11.312-9.63-16.982-14.161-23.493-19.613-33.965-52.438-8.87-27.861-6.4-55.612-22.109-81.059-27.1-43.838-73.54-56.778-121.366-45.466a1.9 1.9 0 0 0 -.923 3.2c26.721 26.936 49.048 49.862 67.929 82.144a1.938 1.938 0 0 0 .895.787c7.731 3.283 15.246 6.4 20.482 7.84a26.494 26.494 0 0 0 11.339.9c6.619-.569 7.487 9.495.868 10.065-16.222 1.383-20.59-5.236-22.9-2.6a1.844 1.844 0 0 0 -.271 2.143c4.286 8.382 8.274 16.711 12.235 25.012a5.048 5.048 0 0 1 -9.115 4.34c-5.643-11.855-14.514-30.437-21.025-41.316z"/></svg>