<svg id="Layer_2" viewBox="0 0 32 32" xmlns="http://www.w3.org/2000/svg"><path d="m30 14.5c0 3.584-2.916 6.5-6.5 6.5-.119 0-.236-.004-.354-.011-.048.007-.097.011-.146.011h-15c-.115 0-.226-.02-.329-.055-3.249-.411-5.671-3.141-5.671-6.445 0-3.584 2.916-6.5 6.5-6.5.29 0 .578.019.863.057 1.06-3.565 4.332-6.057 8.137-6.057 3.915 0 7.284 2.657 8.231 6.4 2.542.927 4.269 3.352 4.269 6.1zm-23.684 7.551c-.527-.175-1.09.109-1.265.632l-1 3c-.175.524.108 1.09.632 1.265.105.035.212.052.316.052.419 0 .809-.265.948-.684l1-3c.175-.524-.108-1.09-.632-1.265zm10 0c-.528-.175-1.09.109-1.265.632l-1 3c-.175.524.108 1.09.632 1.265.105.035.212.052.316.052.419 0 .809-.265.948-.684l1-3c.175-.524-.108-1.09-.632-1.265zm-5 3c-.527-.176-1.091.109-1.265.632l-1 3c-.175.524.108 1.09.632 1.265.105.035.212.052.316.052.419 0 .809-.265.948-.684l1-3c.175-.524-.108-1.09-.632-1.265zm10 0c-.528-.176-1.09.109-1.265.632l-1 3c-.175.524.108 1.09.632 1.265.105.035.212.052.316.052.419 0 .809-.265.948-.684l1-3c.175-.524-.108-1.09-.632-1.265zm5-3c-.529-.175-1.09.109-1.265.632l-1 3c-.175.524.108 1.09.632 1.265.105.035.212.052.316.052.419 0 .809-.265.948-.684l1-3c.175-.524-.108-1.09-.632-1.265z"/></svg>