<svg id="Layer_1" enable-background="new 0 0 512 512" height="512" viewBox="0 0 512 512" width="512" xmlns="http://www.w3.org/2000/svg"><g id="Layer_2_00000036246254082595541780000002748923070707095449_"><g id="_05.wind"><path d="m418.5 99.5c-48.5-6.6-129.3 70.5-73.6 106.3 18.5 8.5 36.5-.2 45.7-20.7 13.1-33.6 60.2-20.3 56 13.5-2 14.9-14.1 24.5-30.9 24.5-62 .1-124 .1-185.9.1-4.6 0-186.3-.1-190.5 0-35.1.3-39.1 23-39.2 32.8 0 22.3 15.9 33.5 38.8 33.4 32.3.2 91-.1 124.1 0 81.8-.2 173.9.5 253.6-.2 126.4-.8 127.3-186.5 1.9-189.7z"/><path d="m265 321.6c-9.9.9-19.8 1.1-29.8 1.1-48.6 0-102.2 0-149.2 0-48.6-2.1-48.2 67.1.1 65.2h127.3 76.2c19.8 0 32.8 11.2 33 28.4.7 15.7-11.5 28.9-27.1 29.6-.5 0-1 0-1.6 0-32.8.1-24.5-44-58.4-43.5-23.5.3-39.4 22.6-30.9 46.3 12.2 37.2 49.2 63.2 90.1 63.2 135.3-10.3 125.1-203.6-29.7-190.3z"/><path d="m194.7.4c-48-6.8-131.4 74.2-70.4 107 17 4.8 29.1 5 42.9-20.8 11-30.1 52.6-24.7 56.5 5.2 2.6 38.8-40.8 32.5-69.4 32.6-30.1 0-67.6-.1-95.5.1-45.6 1.1-44.8 60.3-1.1 64.5 44.7 2 93.9.1 139.2.6 124.1-4.3 120.9-187.4-2.2-189.2z"/></g></g></svg>