<svg enable-background="new 0 0 512 512" height="512" viewBox="0 0 512 512" width="512" xmlns="http://www.w3.org/2000/svg"><g id="_x32_4_Air"><g><path d="m227.702 238.817h-188.286c-14.017 0-25.38-11.363-25.38-25.38v-.18c0-14.017 11.363-25.38 25.38-25.38h189.413c30.944 0 58.552-22.193 62.482-52.887 4.756-37.146-24.175-68.933-60.375-68.933-27.463 0-50.742 18.294-58.303 43.344-3.181 10.537-13.098 17.586-24.105 17.586h-.183c-17.113 0-29.335-16.602-24.287-32.953 14.095-45.652 56.678-78.917 106.878-78.917 63.521 0 114.846 53.26 111.69 117.485-2.951 60.078-54.775 106.215-114.924 106.215z"/><path d="m398.876 496.171c-55.438 6.166-104.027-28.509-119.468-77.722-5.188-16.534 6.792-33.438 24.12-33.438 10.91 0 21.108 6.756 24.194 17.22 7.517 25.493 31.285 44.083 59.253 43.704 32.3-.438 59.508-27.605 60.04-59.904.56-34.035-26.962-61.91-60.88-61.91h-242.451c-14.017 0-25.38-11.363-25.38-25.38v-.18c0-14.017 11.363-25.38 25.38-25.38h242.451c65.903 0 118.679 57.311 111.103 124.709-5.75 51.153-47.204 92.591-98.362 98.281z"/><path d="m202.116 419.005h-162.699c-14.017 0-25.38-11.363-25.38-25.38v-.18c0-14.017 11.363-25.38 25.38-25.38h162.699c14.017 0 25.38 11.363 25.38 25.38v.18c0 14.017-11.363 25.38-25.38 25.38z"/></g></g></svg>