<svg id="Layer_1" height="512" viewBox="0 0 60 60" width="512" xmlns="http://www.w3.org/2000/svg"><g><path d="m54.74 47.92-10.23-11.16h3.09c.38 0 .74-.22.9-.57.17-.34.12-.76-.12-1.06-.29-.35-7.11-8.76-11.95-11.29-.42-.22-.85-.44-1.27-.65-4.19-2.15-8.14-4.17-8.92-9.23-.1-4.19-3.55-7.55-7.89-7.66-2.68-.08-5.2 1.2-6.77 3.37-.6.83-1.41 1.52-2.37 2l-3.66 1.83c-.36.18-.58.56-.55.96s.29.75.67.88l4.27 1.46c.34.11.61.37.74.7.24.57.58 1.16.98 1.7-.37 2.29-1.49 12.28 5.91 17.5 2.32 1.63 5.31 2.85 8.4 3.76.66.21 1.33.39 2 .55 6 1.53 11.93 1.97 13.62 2.07l11.12 10.36c.19.17.43.27.68.27.11 0 .23-.02.33-.06.35-.12.61-.43.66-.8l.61-4.11c.04-.29-.05-.6-.25-.82zm-36.34-35.59c-.05.12-.12.23-.21.33-.05.04-.1.08-.16.12-.05.04-.11.07-.17.09-.06.03-.12.05-.18.06-.07.01-.13.02-.2.02-.26 0-.52-.11-.71-.29-.09-.1-.16-.21-.21-.33s-.08-.25-.08-.38.03-.26.08-.38c.05-.13.12-.24.21-.33.23-.23.58-.33.91-.27.06.01.12.03.18.06.06.02.12.05.17.09.06.03.11.08.16.12.09.09.16.2.21.33.05.12.08.25.08.38s-.03.26-.08.38z"/><path d="m27.97 41.01v2.96c0 .27-.11.53-.31.72l-4.6 4.42h2.74c.55 0 1 .45 1 1s-.45 1-1 1h-9.08c-.55 0-1-.45-1-1s.45-1 1-1h3.45l5.8-5.57v-3.08c.66.21 1.33.39 2 .55z"/></g></svg>