<svg height="512" viewBox="0 0 64 64" width="512" xmlns="http://www.w3.org/2000/svg"><g id="_x30_8_Rain"><g><path d="m57.951 20.82c-.601-7.169-6.629-12.82-13.951-12.82-5.644 0-10.647 3.374-12.833 8.428-1.029-.284-2.087-.428-3.167-.428-6.617 0-12 5.383-12 12s5.383 12 12 12h26c5.514 0 10-4.486 10-10 0-4.042-2.423-7.625-6.049-9.18z"/><path d="m21.414 53.414 6-6c.781-.781.781-2.047 0-2.828-.78-.781-2.048-.781-2.828 0l-6 6c-.781.781-.781 2.047 0 2.828.39.391.902.586 1.414.586s1.024-.195 1.414-.586z"/><path d="m48.586 44.586-6 6c-.781.781-.781 2.047 0 2.828.391.391.902.586 1.414.586s1.023-.195 1.414-.586l6-6c.781-.781.781-2.047 0-2.828s-2.047-.781-2.828 0z"/><path d="m36.586 44.586-16 16c-.781.781-.781 2.047 0 2.828.39.391.902.586 1.414.586s1.024-.195 1.414-.586l16-16c.781-.781.781-2.047 0-2.828s-2.047-.781-2.828 0z"/><path d="m17.414 42.586c-.78-.781-2.048-.781-2.828 0l-2 2c-.781.781-.781 2.047 0 2.828.39.391.902.586 1.414.586s1.024-.195 1.414-.586l2-2c.781-.781.781-2.047 0-2.828z"/><circle cx="38" cy="58" r="2"/><path d="m12.526 32c-.331-1.281-.526-2.617-.526-4 0-8.822 7.178-16 16-16 .34 0 .679.011 1.018.032 2.278-3.435 5.66-5.961 9.549-7.192-2.57-2.959-6.35-4.84-10.567-4.84-5.644 0-10.647 3.374-12.833 8.428-1.029-.284-2.087-.428-3.167-.428-6.617 0-12 5.383-12 12s5.383 12 12 12z"/></g></g></svg>